<?xml version="1.0" encoding="UTF-8"?>
<svg width="1440px" height="2951px" viewBox="0 0 1440 2951" version="1.1" xmlns="http://www.w3.org/2000/svg" xmlns:xlink="http://www.w3.org/1999/xlink" style="background: #FFFFFF;">
    <!-- Generator: Sketch 48.2 (47327) - http://www.bohemiancoding.com/sketch -->
    <title>Desktop HD Copy</title>
    <desc>Created with Sketch.</desc>
    <defs></defs>
    <g id="Page-1" stroke="none" stroke-width="1" fill="none" fill-rule="evenodd">
        <g id="Desktop-HD-Copy">
            <rect id="Rectangle" fill="#FFFFFF" x="-3" y="0" width="1440" height="2951"></rect>
            <path d="M-531,854.020883 C-64.2930327,886.73143 211.641525,846.350041 296.803673,732.876716 C424.546894,562.666728 316.808513,489.917854 500.019956,312.739749 C596.711947,219.231924 740.988678,207.207011 832.994339,133.270457 C894.331446,83.9794206 925,29.2226016 925,-31 L-531,15.9841243 L-531,854.020883 Z" id="Line" fill="#F9F9F9"></path>
            <path d="M-377,633.753409 C-26.3286935,658.322826 181.001256,627.991716 244.989847,542.760078 C340.972735,414.91262 260.020957,360.269772 397.681203,227.18845 C470.333015,156.95322 578.738746,147.921115 647.869373,92.3861802 C693.956458,55.3628907 717,14.234164 717,-31 L-377,4.29053087 L-377,633.753409 Z" id="Line-Copy" fill="#F2EFEF"></path>
            <path d="M-540,2907.61179 C-234.715869,3022.71058 -16.0561432,3050.94903 115.979178,2992.32715 C314.032161,2904.39433 300.477606,2787.49379 502.264148,2693.78251 C602.407695,2647.27505 717.994433,2627.36312 811.356622,2590.08104 C873.598081,2565.22631 911.479207,2519.86597 925,2454 L-540,2485.03654 L-540,2907.61179 Z" id="Line" fill="#F9F9F9" transform="translate(192.500000, 2738.000000) scale(1, -1) translate(-192.500000, -2738.000000) "></path>
            <path d="M-1114,2973.75341 C-560.106017,2998.32283 -232.623245,2967.99172 -131.551685,2882.76008 C20.0556545,2754.91262 -107.809676,2700.26977 109.62808,2567.18845 C224.38341,2496.95322 395.612937,2487.92111 504.806468,2432.38618 C577.602156,2395.36289 614,2354.23416 614,2309 L-1114,2309 L-1114,2973.75341 Z" id="Line-Copy" fill="#F2EFEF" transform="translate(-250.000000, 2645.500000) scale(1, -1) translate(250.000000, -2645.500000) "></path>
            <path d="M912,2020.02579 C1378.79193,2052.72172 1654.77673,2012.35838 1739.95438,1898.93576 C1867.72086,1728.80183 1759.96286,1656.08547 1943.20766,1478.98654 C2039.91725,1385.5205 2267,1435.11096 2267,1258.66575 C2267,1141.03561 2232.61833,1015.09295 2163.85499,880.837768 C1937.61968,706.239841 1796.05576,625.792537 1739.16322,639.495855 C1682.27068,653.199173 1406.5496,834.155064 912,1182.36353 L912,2020.02579 Z" id="Line-Copy-3" fill="#F9F9F9" transform="translate(1589.500000, 1334.500000) scale(-1, 1) translate(-1589.500000, -1334.500000) "></path>
            <path d="M953,1800.75464 C1303.57855,1825.3204 1510.85365,1794.9938 1574.82532,1709.77486 C1670.78282,1581.94644 1589.85245,1527.31173 1727.47629,1394.25023 C1772.37456,1350.84037 1963.87583,1290.18371 1977.59828,1146.18241 C1991.32073,1002.18111 2153.68795,900.630844 1977.59828,807.730747 C1860.20516,745.79735 1518.6724,673.553767 953,591 L953,1800.75464 Z" id="Line-Copy-2" fill="#F2EFEF" transform="translate(1506.000000, 1200.000000) scale(-1, 1) translate(-1506.000000, -1200.000000) "></path>
            <rect id="Rectangle-2" fill="#FFFFFF" opacity="0.428158967" x="0" y="0" width="1440" height="2951"></rect>
        </g>
    </g>
</svg>