<?xml version="1.0" encoding="UTF-8"?>
<svg width="926px" height="516px" viewBox="0 0 926 516" version="1.1" xmlns="http://www.w3.org/2000/svg" xmlns:xlink="http://www.w3.org/1999/xlink">
    <!-- Generator: Sketch 48.2 (47327) - http://www.bohemiancoding.com/sketch -->
    <title>Group 3</title>
    <desc>Created with Sketch.</desc>
    <defs></defs>
    <g id="Desktop-HD-Copy" stroke="none" stroke-width="1" fill="none" fill-rule="evenodd" transform="translate(0.000000, -2435.000000)">
        <g id="Group-3" transform="translate(-4.000000, 2434.000000)">
            <path d="M4,0.647355273 L0.517985203,517 C57.4540756,508.396916 97.2744733,499.055085 119.979178,488.974505 C318.032161,401.041684 304.477606,284.141149 506.264148,190.429869 C606.407695,143.922407 721.994433,124.010478 815.356622,86.7283931 C877.598081,61.8736697 915.595759,33.1799904 929.349654,0.647355273 L4,0.647355273 Z" id="Line" fill="#F9F9F9" transform="translate(464.933820, 258.823678) scale(1, -1) translate(-464.933820, -258.823678) "></path>
            <path d="M4,181.137656 L5.36935399,517 C41.2083483,480.788406 77.2945904,451.563775 113.62808,429.326106 C228.38341,359.090876 399.612937,350.058771 508.806468,294.523836 C581.602156,257.500547 619.03835,219.705153 621.11505,181.137656 L4,181.137656 Z" id="Line-Copy" fill="#F2EFEF" transform="translate(312.557525, 349.068828) scale(1, -1) translate(-312.557525, -349.068828) "></path>
        </g>
    </g>
</svg>