<?xml version="1.0" encoding="UTF-8"?>
<svg width="528px" height="1263px" viewBox="0 0 528 1263" version="1.1" xmlns="http://www.w3.org/2000/svg" xmlns:xlink="http://www.w3.org/1999/xlink">
    <!-- Generator: Sketch 48.2 (47327) - http://www.bohemiancoding.com/sketch -->
    <title>Group</title>
    <desc>Created with Sketch.</desc>
    <defs></defs>
    <g id="Desktop-HD-Copy" stroke="none" stroke-width="1" fill="none" fill-rule="evenodd" transform="translate(-912.000000, -638.000000)">
        <g id="Group" transform="translate(912.000000, 591.000000)">
            <path d="M8.23584894e-17,1429.02579 C466.791934,1461.72172 742.776727,1421.35838 827.954379,1307.93576 C955.720857,1137.80183 847.962862,1065.08547 1031.20766,887.986541 C1127.91725,794.520502 1355,844.110959 1355,667.665748 C1355,550.035607 1320.61833,424.092947 1251.85499,289.837768 C1025.61968,115.239841 884.05576,34.7925372 827.163218,48.4958551 C770.270677,62.199173 494.549604,243.155064 0,591.363529 L8.23584894e-17,1429.02579 Z" id="Line-Copy-3" fill="#F9F9F9" transform="translate(677.500000, 743.500000) scale(-1, 1) translate(-677.500000, -743.500000) "></path>
            <path d="M41,1209.75464 C391.578548,1234.3204 598.853655,1203.9938 662.825321,1118.77486 C758.782819,990.94644 677.852454,936.311729 815.476287,803.250227 C860.374558,759.840367 1051.87583,699.183712 1065.59828,555.18241 C1079.32073,411.181108 1241.68795,309.630844 1065.59828,216.730747 C948.205162,154.79735 606.672402,82.5537672 41,0 L41,1209.75464 Z" id="Line-Copy-2" fill="#F2EFEF" transform="translate(594.000000, 609.000000) scale(-1, 1) translate(-594.000000, -609.000000) "></path>
        </g>
    </g>
</svg>