<?xml version="1.0" encoding="UTF-8"?>
<svg width="923px" height="852px" viewBox="0 0 923 852" version="1.1" xmlns="http://www.w3.org/2000/svg" xmlns:xlink="http://www.w3.org/1999/xlink">
    <!-- Generator: Sketch 48.2 (47327) - http://www.bohemiancoding.com/sketch -->
    <title>Group 2</title>
    <desc>Created with Sketch.</desc>
    <defs></defs>
    <g id="Desktop-HD-Copy" stroke="none" stroke-width="1" fill="none" fill-rule="evenodd">
        <g id="Group-2" transform="translate(-531.000000, -31.000000)">
            <path d="M8.23434982e-17,885.020883 C466.706967,917.73143 742.641525,877.350041 827.803673,763.876716 C955.546894,593.666728 847.808513,520.917854 1031.01996,343.739749 C1127.71195,250.231924 1271.98868,238.207011 1363.99434,164.270457 C1425.33145,114.979421 1456,60.2226016 1456,0 L0,46.9841243 L8.23434982e-17,885.020883 Z" id="Line" fill="#F9F9F9"></path>
            <path d="M154,664.753409 C504.671306,689.322826 712.001256,658.991716 775.989847,573.760078 C871.972735,445.91262 791.020957,391.269772 928.681203,258.18845 C1001.33302,187.95322 1109.73875,178.921115 1178.86937,123.38618 C1224.95646,86.3628907 1248,45.234164 1248,0 L154,35.2905309 L154,664.753409 Z" id="Line-Copy" fill="#F2EFEF"></path>
        </g>
    </g>
</svg>